<svg xmlns="http://www.w3.org/2000/svg" width="100" height="100" viewBox="0 0 100 100"><g transform="translate(-492 -3515)"><circle cx="50" cy="50" r="50" transform="translate(492 3515)" fill="#008522"/><path d="M17.681,44a3.46,3.46,0,0,1-3.375-3.375V35h6.975V27.856a10.242,10.242,0,0,1-4.275-.591,10.525,10.525,0,0,1-3.825-2.391V21.613H10.369L3,14.244a16.4,16.4,0,0,1,4.838-3.122,14.4,14.4,0,0,1,5.737-1.209,16.3,16.3,0,0,1,3.853.534,11.418,11.418,0,0,1,3.853,1.716V8H46.875V38.094A5.858,5.858,0,0,1,40.969,44Zm6.975-9H38.438v3.094a2.532,2.532,0,1,0,5.062,0V11.375H24.656v3.206L38.212,28.137v2.419H35.794l-7.087-7.087-.956,1.125a6.472,6.472,0,0,1-1.462,1.294,13.228,13.228,0,0,1-1.631.844ZM11.888,18.237h4.669v5.006a8.343,8.343,0,0,0,1.884.928,5.923,5.923,0,0,0,1.884.309,6.2,6.2,0,0,0,2.869-.759,7.147,7.147,0,0,0,2.137-1.547l.956-1.125-3.881-3.881a14.012,14.012,0,0,0-4.05-2.841,11.254,11.254,0,0,0-4.781-1.041,9.71,9.71,0,0,0-2.756.366,17.127,17.127,0,0,0-2.531.984Zm5.794,22.388H35.85a2.6,2.6,0,0,1-.562-.928,3.689,3.689,0,0,1-.225-1.322H17.681Zm0,0v0Z" transform="translate(511 3537)" fill="#fff"/></g></svg>