<svg xmlns="http://www.w3.org/2000/svg" width="64" height="64" viewBox="0 0 64 64"><g transform="translate(-507 -1771)"><circle cx="32" cy="32" r="32" transform="translate(507 1771)" fill="#008522"/><path d="M14.007,36.809a5.562,5.562,0,0,1-3.489-1.17,6.193,6.193,0,0,1-2.135-3.017,5.046,5.046,0,0,1-1.6,1.662,4.146,4.146,0,0,1-2.258.6,4.207,4.207,0,0,1-3.2-1.355,4.521,4.521,0,0,1-1.273-3.2A4.143,4.143,0,0,1,1.3,27.142a4.628,4.628,0,0,1,3.181-1.211,5.976,5.976,0,0,1-1.149-1.909,6.178,6.178,0,0,1-.41-2.2,5.631,5.631,0,0,1,.8-2.914A5.917,5.917,0,0,1,6,16.736q.205.534.513,1.149a7.582,7.582,0,0,0,.636,1.067,4.082,4.082,0,0,0-1.293,1.314,3.123,3.123,0,0,0-.472,1.642,2.873,2.873,0,0,0,1.991,3.1,35.509,35.509,0,0,0,3.838,1.006l.452.78q-.493,1.437-.8,2.36a5.419,5.419,0,0,0-.308,1.7,3.577,3.577,0,0,0,3.489,3.489,3.351,3.351,0,0,0,2.771-1.416,11.875,11.875,0,0,0,1.765-3.366,27.018,27.018,0,0,0,1.047-3.941q.369-1.991.616-3.1l2.381.657q-.369,1.765-.862,4.1a22.85,22.85,0,0,1-1.416,4.454,11.373,11.373,0,0,1-2.422,3.592A5.342,5.342,0,0,1,14.007,36.809ZM4.565,32.417a2.052,2.052,0,1,0,0-4.1,2.052,2.052,0,1,0,0,4.1Zm12.315-7.8q-1.847-1.642-3.366-3.058a26.609,26.609,0,0,1-2.607-2.771A12.627,12.627,0,0,1,9.224,16.12a6.685,6.685,0,0,1-.6-2.791A5.886,5.886,0,0,1,14.54,7.418q.369,0,.7.021a3.639,3.639,0,0,1,.657.1,8.159,8.159,0,0,1-.534-1.19,3.1,3.1,0,0,1-.164-.985,4.357,4.357,0,0,1,1.314-3.2,4.559,4.559,0,0,1,6.4,0,4.357,4.357,0,0,1,1.314,3.2,3.585,3.585,0,0,1-.144.965,5.312,5.312,0,0,1-.554,1.211,3.639,3.639,0,0,1,.657-.1q.328-.021.7-.021a5.623,5.623,0,0,1,3.961,1.5,5.766,5.766,0,0,1,1.868,3.715,12.047,12.047,0,0,0-1.231-.021,11.2,11.2,0,0,0-1.231.1,3.373,3.373,0,0,0-1.108-2.032,3.279,3.279,0,0,0-2.258-.8,3.336,3.336,0,0,0-2.4.842q-.883.842-2.36,2.566h-.862a28.647,28.647,0,0,0-2.4-2.607,3.319,3.319,0,0,0-2.319-.8,3.367,3.367,0,0,0-3.448,3.448,4.341,4.341,0,0,0,.534,2.011,12.283,12.283,0,0,0,1.519,2.2A27.943,27.943,0,0,0,15.525,20q1.4,1.293,3.12,2.853Zm2.832-17.2a2.033,2.033,0,0,0,2.052-2.052,2.052,2.052,0,1,0-4.1,0,2.033,2.033,0,0,0,2.052,2.052ZM25.377,36.85a5.735,5.735,0,0,1-1.786-.287,6.446,6.446,0,0,1-1.7-.862q.328-.493.657-1.108a10.394,10.394,0,0,0,.534-1.149,4.463,4.463,0,0,0,1.17.677,3.389,3.389,0,0,0,1.211.226A3.261,3.261,0,0,0,27.9,33.3a3.415,3.415,0,0,0,1.006-2.442,5.215,5.215,0,0,0-.328-1.745q-.328-.924-.78-2.319l.452-.78a28.4,28.4,0,0,0,3.859-.965,2.874,2.874,0,0,0,1.97-3.1,3.017,3.017,0,0,0-1.314-2.689,5.112,5.112,0,0,0-2.914-.883,15.578,15.578,0,0,0-4.084.657q-2.36.657-5.48,1.683l-.616-2.381q3.12-1.026,5.624-1.724a17.113,17.113,0,0,1,4.556-.7,7.381,7.381,0,0,1,4.659,1.58,5.273,5.273,0,0,1,2.032,4.413,6.173,6.173,0,0,1-1.56,4.064A4.6,4.6,0,0,1,38.144,27.2a4.123,4.123,0,0,1,1.273,3.161,4.521,4.521,0,0,1-1.273,3.2,4.207,4.207,0,0,1-3.2,1.355,4.279,4.279,0,0,1-2.258-.6,4.56,4.56,0,0,1-1.6-1.662,6.453,6.453,0,0,1-2.176,3.017,5.622,5.622,0,0,1-3.53,1.17Zm9.564-4.392a1.934,1.934,0,0,0,1.416-.6,1.982,1.982,0,0,0,.6-1.457,2.037,2.037,0,0,0-.616-1.457,1.939,1.939,0,0,0-1.437-.636,2.1,2.1,0,0,0-2.052,2.052,2.178,2.178,0,0,0,2.094,2.094ZM4.565,30.364ZM19.712,5.365ZM34.9,30.364Z" transform="translate(519.267 1782.15)" fill="#fff"/></g></svg>