<svg xmlns="http://www.w3.org/2000/svg" width="64" height="64" viewBox="0 0 64 64"><g transform="translate(-507 -1880)"><circle cx="32" cy="32" r="32" transform="translate(507 1880)" fill="#008522"/><path d="M29.826,10.242a2.835,2.835,0,0,1-2.078-.868A2.835,2.835,0,0,1,26.88,7.3a2.835,2.835,0,0,1,.868-2.078,2.923,2.923,0,0,1,4.156,0A2.835,2.835,0,0,1,32.772,7.3,2.835,2.835,0,0,1,31.9,9.374,2.835,2.835,0,0,1,29.826,10.242ZM27.4,36.35V22.791a4.027,4.027,0,0,0-.605-2.179A3.47,3.47,0,0,0,25.024,19.2l1.654-4.842a3.051,3.051,0,0,1,1.19-1.614,3.467,3.467,0,0,1,3.914,0,3.051,3.051,0,0,1,1.19,1.614l4.116,11.9H32.651V36.35ZM20.747,19.4a2.425,2.425,0,0,1-1.715-4.136,2.425,2.425,0,0,1,3.43,3.43A2.335,2.335,0,0,1,20.747,19.4Zm-11.1-9.16a2.835,2.835,0,0,1-2.078-.868A2.835,2.835,0,0,1,6.7,7.3a2.835,2.835,0,0,1,.868-2.078,2.923,2.923,0,0,1,4.156,0A2.835,2.835,0,0,1,12.6,7.3a2.835,2.835,0,0,1-.868,2.078A2.835,2.835,0,0,1,9.649,10.242ZM6.825,36.35v-11.7H4V14.559a2.411,2.411,0,0,1,2.421-2.421h6.456A2.411,2.411,0,0,1,15.3,14.559V24.648H12.474v11.7Zm11.7,0V29.49H16.509v-6.7a1.791,1.791,0,0,1,1.776-1.776h4.923a1.791,1.791,0,0,1,1.776,1.776v6.7H22.966v6.86Z" transform="translate(518.455 1891.65)" fill="#fff"/></g></svg>