<svg xmlns="http://www.w3.org/2000/svg" width="64" height="64" viewBox="0 0 64 64"><g transform="translate(-507 -1662)"><circle cx="32" cy="32" r="32" transform="translate(507 1662)" fill="#008522"/><path d="M5.884,25.168a.863.863,0,1,1,.632-.253.857.857,0,0,1-.632.253Zm0-6.568a.863.863,0,1,1,.632-.253.857.857,0,0,1-.632.253Zm5.011,14.105a1.582,1.582,0,1,1,1.137-.463A1.546,1.546,0,0,1,10.895,32.705Zm0-6.821a1.582,1.582,0,1,1,1.137-.463,1.546,1.546,0,0,1-1.137.463Zm0-6.568a1.582,1.582,0,1,1,1.137-.463A1.546,1.546,0,0,1,10.895,19.316Zm0-6.821A1.608,1.608,0,0,1,9.758,9.758a1.608,1.608,0,0,1,2.274,2.274A1.546,1.546,0,0,1,10.895,12.495Zm6.821,14.063a2.278,2.278,0,0,1-1.6-3.895,2.278,2.278,0,0,1,3.221,3.221A2.166,2.166,0,0,1,17.716,26.558Zm0-6.568a2.278,2.278,0,0,1-1.6-3.895,2.278,2.278,0,0,1,3.221,3.221A2.166,2.166,0,0,1,17.716,19.989Zm0,12.716a1.582,1.582,0,1,1,1.137-.463,1.546,1.546,0,0,1-1.137.463Zm0-20.211a1.608,1.608,0,0,1-1.137-2.737,1.608,1.608,0,0,1,2.274,2.274,1.546,1.546,0,0,1-1.137.463Zm0,24.505a.863.863,0,1,1,.632-.253A.857.857,0,0,1,17.716,37Zm0-30.232a.863.863,0,1,1,.632-.253A.857.857,0,0,1,17.716,6.768Zm6.568,19.789a2.278,2.278,0,0,1-1.6-3.895,2.278,2.278,0,0,1,3.221,3.221A2.166,2.166,0,0,1,24.284,26.558Zm0-6.568a2.278,2.278,0,0,1-1.6-3.895,2.278,2.278,0,0,1,3.221,3.221A2.166,2.166,0,0,1,24.284,19.989Zm0,12.716a1.582,1.582,0,1,1,1.137-.463,1.546,1.546,0,0,1-1.137.463Zm0-20.211a1.608,1.608,0,0,1-1.137-2.737,1.608,1.608,0,0,1,2.274,2.274,1.546,1.546,0,0,1-1.137.463Zm0-5.726a.863.863,0,1,1,.632-.253A.857.857,0,0,1,24.284,6.768ZM24.537,37a.863.863,0,1,1,.632-.253A.857.857,0,0,1,24.537,37Zm6.568-4.295a1.582,1.582,0,1,1,1.137-.463,1.546,1.546,0,0,1-1.137.463Zm0-6.821a1.582,1.582,0,1,1,1.137-.463,1.546,1.546,0,0,1-1.137.463Zm0-6.568a1.582,1.582,0,1,1,1.137-.463,1.546,1.546,0,0,1-1.137.463Zm0-6.821a1.608,1.608,0,0,1-1.137-2.737,1.608,1.608,0,0,1,2.274,2.274,1.546,1.546,0,0,1-1.137.463Zm5.011,12.674a.863.863,0,1,1,.632-.253A.857.857,0,0,1,36.116,25.168Zm0-6.568a.863.863,0,1,1,.632-.253A.857.857,0,0,1,36.116,18.6Z" transform="translate(518 1673)" fill="#fff"/></g></svg>