<svg xmlns="http://www.w3.org/2000/svg" width="100" height="100" viewBox="0 0 100 100"><g transform="translate(-132 -3515)"><circle cx="50" cy="50" r="50" transform="translate(132 3515)" fill="#008522"/><path d="M27.977,52a22.2,22.2,0,0,1-8.949-1.814A23.2,23.2,0,0,1,6.814,37.972,22.2,22.2,0,0,1,5,29.023a22.2,22.2,0,0,1,1.814-8.949A23.2,23.2,0,0,1,19.028,7.86a22.2,22.2,0,0,1,8.949-1.814V0l9.674,9.674-9.674,9.674V13.3a15.154,15.154,0,0,0-11.126,4.6,15.154,15.154,0,0,0-4.6,11.126A15.348,15.348,0,0,0,14.1,36.43a15.553,15.553,0,0,0,4.928,5.533A8.157,8.157,0,0,1,21.9,39.091a10.671,10.671,0,0,1,4.384-1.481q-.181-1.27-.484-2.54a18.024,18.024,0,0,0-.726-2.358,5.263,5.263,0,0,1-1.451.847,4.849,4.849,0,0,1-6.53-4.535V26.6a5.576,5.576,0,0,0-.333-1.935,7.493,7.493,0,0,0-.877-1.693,20.106,20.106,0,0,1,5.381.544A11.093,11.093,0,0,1,25.014,25.3a4.455,4.455,0,0,1,1.753,3.719,5.1,5.1,0,0,1-.091,1,3.747,3.747,0,0,1-.333.937,18.392,18.392,0,0,0-1.572-1.088,12.525,12.525,0,0,0-1.633-.847A15.06,15.06,0,0,1,25.5,31.442a22.067,22.067,0,0,1,2.479,3.87A37.384,37.384,0,0,1,31,29.477a30.477,30.477,0,0,1,4.233-5.291,33.34,33.34,0,0,0-2.66,2.056q-1.27,1.088-2.479,2.3a6,6,0,0,1,5.14-9.191h2.419a6.241,6.241,0,0,0,2.3-.363,5.938,5.938,0,0,0,1.512-.847,4.115,4.115,0,0,0,1.028-1.209,27.7,27.7,0,0,1-.423,7.256,13.771,13.771,0,0,1-2.056,4.988,5.328,5.328,0,0,1-4.777,2.267,6.035,6.035,0,0,1-1.723-.242,5.824,5.824,0,0,1-1.481-.665q-.423,1.149-.967,3.053a29.758,29.758,0,0,0-.847,4.081,10.912,10.912,0,0,1,4.051,1.572,8.136,8.136,0,0,1,2.66,2.721,15.629,15.629,0,0,0,4.928-5.5A15.3,15.3,0,0,0,43.7,29.023h7.256a22.2,22.2,0,0,1-1.814,8.949A23.2,23.2,0,0,1,36.926,50.186,22.2,22.2,0,0,1,27.977,52Z" transform="translate(154.023 3536)" fill="#fff"/></g></svg>