<svg xmlns="http://www.w3.org/2000/svg" width="64" height="64" viewBox="0 0 64 64"><g transform="translate(-507 -1989)"><circle cx="32" cy="32" r="32" transform="translate(507 1989)" fill="#008522"/><path d="M10,36V33.474h8.758V29.095h-.632A8.052,8.052,0,0,1,10,20.968a8.116,8.116,0,0,1,1.411-4.653,7.659,7.659,0,0,1,3.937-2.968,3.931,3.931,0,0,1,1.495-2.695,4.09,4.09,0,0,1,3.011-.968L18.968,7.2l1.726-.632-.589-1.558L22.884,4l.589,1.558,1.684-.589,4.758,12.421-1.811.632.589,1.558L26,20.547l-.589-1.558-1.811.674L22.547,16.8a3.637,3.637,0,0,1-1.495,1.032,4.686,4.686,0,0,1-1.832.274,4,4,0,0,1-2-.674,4.178,4.178,0,0,1-1.495-1.6,5.023,5.023,0,0,0-2.4,2.126,6.006,6.006,0,0,0-.8,3.011,5.536,5.536,0,0,0,5.6,5.6H32.737v2.526H22.968v4.379H33.579V36ZM24.989,16.968l2.232-.8L23.853,7.495l-2.232.8ZM19.516,16a2.114,2.114,0,0,0,1.495-3.6,2.114,2.114,0,0,0-2.989,2.989A2.033,2.033,0,0,0,19.516,16ZM24.989,16.968ZM19.516,13.811ZM19.6,13.811Z" transform="translate(517 1998)" fill="#fff"/></g></svg>