<svg xmlns="http://www.w3.org/2000/svg" xmlns:xlink="http://www.w3.org/1999/xlink" width="129.016" height="168.442" viewBox="0 0 129.016 168.442"><defs><radialGradient id="a" cx="0.5" cy="1.034" r="0.501" gradientTransform="matrix(-0.008, 1, -1.3, -0.01, 1.854, 0.549)" gradientUnits="objectBoundingBox"><stop offset="0" stop-color="#e4ebec"/><stop offset="0.09" stop-color="#dae5e4"/><stop offset="0.25" stop-color="#c0d5ce"/><stop offset="0.45" stop-color="#95bbaa"/><stop offset="0.68" stop-color="#5a9678"/><stop offset="0.95" stop-color="#0f6839"/><stop offset="1" stop-color="#005f2c"/></radialGradient><linearGradient id="b" x1="0.392" y1="0.98" x2="0.611" y2="0.004" gradientUnits="objectBoundingBox"><stop offset="0" stop-color="#bcbdc3"/><stop offset="0.17" stop-color="#8e9095"/><stop offset="0.23" stop-color="#acadb0"/><stop offset="0.29" stop-color="#c3c3c4"/><stop offset="0.32" stop-color="#cbcbcb"/><stop offset="0.39" stop-color="#b9bbbd"/><stop offset="0.59" stop-color="#8c9298"/><stop offset="0.7" stop-color="#bcbdbe"/><stop offset="0.73" stop-color="#cac9c9"/><stop offset="0.74" stop-color="#c5c5c5"/><stop offset="0.81" stop-color="#a1a4a8"/><stop offset="0.86" stop-color="#8b9096"/><stop offset="0.9" stop-color="#83898f"/><stop offset="0.95" stop-color="#b3b6b9"/><stop offset="1" stop-color="#dbdbdb"/></linearGradient><linearGradient id="c" x1="0.5" y1="1" x2="0.5" gradientUnits="objectBoundingBox"><stop offset="0" stop-color="#ededed"/><stop offset="0.16" stop-color="#ededed"/><stop offset="0.29" stop-color="#9d9d9c"/><stop offset="0.51" stop-color="#706f6f"/><stop offset="0.65" stop-color="#9d9d9c"/><stop offset="0.8" stop-color="#ededed"/><stop offset="1" stop-color="#b4b4b4"/></linearGradient><linearGradient id="d" x2="0.952" y2="1" gradientUnits="objectBoundingBox"><stop offset="0" stop-color="#fff" stop-opacity="0"/><stop offset="1" stop-color="#fff"/></linearGradient><linearGradient id="e" y1="1" x2="0.952" y2="0" xlink:href="#d"/></defs><g transform="translate(-410 -2215)"><g transform="translate(410 2215)" style="isolation:isolate"><g transform="translate(0 0)"><circle cx="61.903" cy="61.903" r="61.903" transform="translate(2.321 134.281) rotate(-89.74)" fill="#53ad33"/><g transform="translate(2.329 10.477)" style="mix-blend-mode:multiply;isolation:isolate"><circle cx="61.903" cy="61.903" r="61.903" transform="translate(0 0.562) rotate(-0.26)" fill="url(#a)"/></g><path d="M68.046,19.446a13.433,13.433,0,0,1,.925,2.669,61.915,61.915,0,1,1-7.145-.1,12.878,12.878,0,0,1,.937-2.643,64.539,64.539,0,1,0,5.282.076Z" transform="translate(0 -11.19)" fill="url(#b)"/><path d="M111.475,164.472c-7.233,0-11.908-4.974-11.908-12.668,0-7.36,4.9-12.5,11.908-12.5,7.233,0,11.908,4.907,11.908,12.5S118.6,164.472,111.475,164.472Zm0-20.8c-3.513,0-5.7,3.15-5.7,8.213,0,5.147,2.132,8.217,5.7,8.217s5.7-3.07,5.7-8.217C117.176,146.826,114.992,143.676,111.475,143.676ZM21.37,163.945V131.11h11c8.817,0,14.509,6.444,14.509,16.413s-5.692,16.413-14.509,16.413Zm6.532-5.274h3.133c5.912,0,9.007-3.851,9.007-11.139s-3.116-11.143-9.007-11.143H27.9ZM85.3,163.949v-4.544a16.455,16.455,0,0,1-1.9.127c-2.846,0-2.846-2.006-2.846-4.543V143.976h3.513l.874-4.13H80.549v-8.023l-6.11,2v6.021H71.906v4.13h2.534v12.613c0,4.02.844,7.736,6.879,7.736a23.363,23.363,0,0,0,3.978-.384Zm14.412,0v-4.544a16.431,16.431,0,0,1-1.9.127c-2.846,0-2.846-2.006-2.846-4.543V143.976h4.691v-4.13H94.961v-8.023l-6.11,2v6.021H86.807l-.921,4.13h2.956v12.613c0,4.02.845,7.736,6.879,7.736a23.357,23.357,0,0,0,3.986-.384Zm31.7,0V131.11H125.3v32.826Zm-70.825.562c-7.284,0-11.823-4.856-11.823-12.668,0-7.719,4.539-12.516,11.853-12.516a10.006,10.006,0,0,1,7.5,2.9c2.348,2.432,3.53,6.308,3.42,11.219H55.066v.38c.076,1.845.756,6.135,5.354,6.135a4.87,4.87,0,0,0,4.679-2.956h5.983a11.076,11.076,0,0,1-10.5,7.491Zm-.422-20.994c-2.816,0-4.645,2.111-5.008,5.852l-.038.422H65.251v-.376c-.122-3.462-2.141-5.878-4.907-5.878Z" transform="translate(-12.346 -75.747)" fill="#fff"/><path d="M129.908,111.73c0,11.4,1.334,15.792,3.357,23.325,2.018-7.533,3.454-11.937,3.454-23.325V93.063c-2.534,0-5.021-.422-6.815-1.824Zm16.181-86.993h-9.915a26.9,26.9,0,0,0,.693-6.309c0-4.391-.883-8.162-2.145-9.767a3.429,3.429,0,0,0,2.006-3.3,3.288,3.288,0,0,0-3.378-3.53,3.347,3.347,0,0,0-3.378,3.53,3.384,3.384,0,0,0,2,3.319c-1.267,1.613-2.137,5.371-2.137,9.75a26.6,26.6,0,0,0,.752,6.532l-7.242,1.689v-.089a2.849,2.849,0,1,0-5.692,0,2.786,2.786,0,0,0,2.846,3.019h9.361V55.6l6.828-2.238V29.108l6.566-1.448a1,1,0,0,0,0,.118,2.779,2.779,0,0,0,2.846,2.977,2.812,2.812,0,0,0,2.842-2.977A2.8,2.8,0,0,0,146.089,24.737Z" transform="translate(-67.972 -1.056)" fill="url(#c)"/><path d="M153.3,4.3a4.645,4.645,0,0,0-.667-2.474A3.569,3.569,0,0,0,152.4,1.5a3.843,3.843,0,0,0-.545-.566A4.213,4.213,0,0,0,145,4.3a5.067,5.067,0,0,0,.249,1.609,4.181,4.181,0,0,0,.714,1.309,3.664,3.664,0,0,0,.726.667c-.051.093-.1.194-.152.291a12.885,12.885,0,0,0-.937,2.643l.807-.03c.072-.266.144-.519.224-.764a9.333,9.333,0,0,1,.794-1.862c.059-.1.118-.194.177-.287s.122-.177.182-.258a3.165,3.165,0,0,1-.845-.5,3.6,3.6,0,0,1-1.17-2.816A3.5,3.5,0,0,1,147.2,1.346a2.365,2.365,0,0,1,.279-.173,3.2,3.2,0,0,1,.963-.329,3.559,3.559,0,0,1,.714-.068,3.293,3.293,0,0,1,3.378,3.53A3.429,3.429,0,0,1,150.523,7.6a5.413,5.413,0,0,1,.4.608,9.477,9.477,0,0,1,.79,1.887c.08.249.152.5.22.773.27,0,.545.03.815.051-.127-.511-.266-1-.422-1.44a10.18,10.18,0,0,0-.5-1.229c-.068-.135-.135-.266-.2-.388a3.821,3.821,0,0,0,.376-.317A4.362,4.362,0,0,0,153.3,4.3Z" transform="translate(-83.773 0.002)" fill="#00783f" style="mix-blend-mode:multiply;isolation:isolate"/></g></g><g transform="translate(455.133 2307.152) rotate(20)"><g transform="translate(23.496 0)"><path d="M0,0,10.141,32.768l1.295-.446Z" transform="matrix(0.946, 0.326, -0.326, 0.946, 10.668, 0)" fill="url(#d)"/><path d="M0,32.767,10.141,0l1.295.446Z" transform="translate(0 37.557) rotate(-19)" fill="url(#e)"/></g><g transform="translate(68.54 23.967) rotate(90)"><path d="M0,0,10.141,32.768l1.295-.446Z" transform="matrix(0.946, 0.326, -0.326, 0.946, 10.668, 0)" fill="url(#d)"/><path d="M0,32.767,10.141,0l1.295.446Z" transform="translate(0 37.557) rotate(-19)" fill="url(#e)"/></g><g transform="translate(64.594 50.345) rotate(135)"><path d="M0,0,10.141,32.768l1.295-.446Z" transform="matrix(0.946, 0.326, -0.326, 0.946, 10.668, 0)" fill="url(#d)"/><path d="M0,32.767,10.141,0l1.295.446Z" transform="translate(0 37.557) rotate(-19)" fill="url(#e)"/></g><g transform="translate(17.068 65.533) rotate(-135)"><path d="M0,0,10.141,32.768l1.295-.446Z" transform="matrix(0.946, 0.326, -0.326, 0.946, 10.668, 0)" fill="url(#d)"/><path d="M0,32.767,10.141,0l1.295.446Z" transform="translate(0 37.557) rotate(-19)" fill="url(#e)"/></g></g></g></svg>