<svg xmlns="http://www.w3.org/2000/svg" width="100" height="100" viewBox="0 0 100 100"><g transform="translate(-852 -3515)"><circle cx="50" cy="50" r="50" transform="translate(852 3515)" fill="#008522"/><path d="M24,43.95a19.635,19.635,0,0,1-11.5-8.125A23.715,23.715,0,0,1,8,21.85V9.95l16-6,16,6v11.9a23.715,23.715,0,0,1-4.5,13.975A19.635,19.635,0,0,1,24,43.95Zm0-3.1a18.038,18.038,0,0,0,9.375-7.175A20.4,20.4,0,0,0,37,21.85v-9.8L24,7.15l-13,4.9v9.8a20.4,20.4,0,0,0,3.625,11.825A18.038,18.038,0,0,0,24,40.85ZM24,24Z" transform="translate(878 3541.05)" fill="#fff"/></g></svg>